<svg width="16" height="11" viewBox="0 0 16 11" fill="none" xmlns="http://www.w3.org/2000/svg">
<path fill-rule="evenodd" clip-rule="evenodd" d="M14.5432 2.06071C14.7384 1.86544 14.7384 1.54886 14.5432 1.3536C14.3479 1.15834 14.0313 1.15834 13.8361 1.3536L7.86258 7.32709C7.08153 8.10814 5.8152 8.10814 5.03415 7.32709L2.06058 4.35352C1.86532 4.15826 1.54874 4.15826 1.35348 4.35352C1.15822 4.54879 1.15822 4.86537 1.35348 5.06063L6.21542 9.92257C6.21603 9.92319 6.21703 9.92319 6.21765 9.92257C6.21827 9.92195 6.21927 9.92195 6.21988 9.92257L6.33468 10.0374C6.3987 10.1014 6.5025 10.1014 6.56651 10.0374L14.5432 2.06071Z" fill="#2EB84C"/>
<path fill-rule="evenodd" clip-rule="evenodd" d="M13.4825 1.00005C13.873 0.609523 14.5062 0.609522 14.8967 1.00005C15.2873 1.39057 15.2873 2.02374 14.8967 2.41426L6.92007 10.3909C6.66079 10.6502 6.24041 10.6502 5.98113 10.3909L5.90412 10.3139C5.88951 10.3022 5.87539 10.2897 5.86186 10.2761L0.999924 5.41418C0.6094 5.02366 0.6094 4.3905 0.999924 3.99997C1.39045 3.60945 2.02361 3.60945 2.41414 3.99997L5.3877 6.97354C5.97349 7.55932 6.92324 7.55932 7.50902 6.97354L13.4825 1.00005ZM6.44836 9.44841L8.21613 7.68064C7.23999 8.65678 5.65746 8.65696 4.68111 7.68116L6.44836 9.44841Z" fill="#2EB84C"/>
</svg>
