<svg aria-hidden="true" style="position: absolute; width: 0; height: 0; overflow: hidden;" version="1.1" xmlns="http://www.w3.org/2000/svg" xmlns:xlink="http://www.w3.org/1999/xlink">
    <defs>
        <symbol id="icon-arrow-left-bold" viewBox="0 0 32 32">
            <path fill="#666" style="fill: var(--color1, #666)" d="M10.585 28.728c-0.375-0.375-0.586-0.884-0.586-1.414s0.211-1.039 0.586-1.414l9.9-9.9-9.9-9.9c-0.364-0.377-0.566-0.882-0.561-1.407s0.215-1.026 0.586-1.397c0.371-0.371 0.872-0.581 1.397-0.586s1.030 0.197 1.407 0.561l11.314 11.314c0.375 0.375 0.586 0.884 0.586 1.414s-0.21 1.039-0.586 1.414l-11.314 11.314c-0.375 0.375-0.884 0.586-1.414 0.586s-1.039-0.21-1.414-0.586z"></path>
        </symbol>
        <symbol id="icon-close" viewBox="0 0 34 32">
            <path d="M4.946 1.544l26.399 26.399c0.694 0.694 0.694 1.82 0 2.514s-1.82 0.694-2.514 0l-26.399-26.399c-0.694-0.694-0.694-1.82 0-2.514s1.82-0.694 2.514 0z"></path>
            <path d="M2.432 27.942l26.399-26.399c0.694-0.694 1.82-0.694 2.514 0s0.694 1.82 0 2.514l-26.399 26.399c-0.694 0.694-1.82 0.694-2.514 0s-0.694-1.82 0-2.514z"></path>
        </symbol>
        <symbol id="icon-delivery" viewBox="0 0 79 32">
            <path fill="#393939" style="fill: var(--color3, #393939)" d="M3.395 7.61v9.537h1.679c1.475 0 2.627-0.443 3.466-1.316 0.84-0.886 1.259-2.082 1.259-3.602 0-1.436-0.42-2.561-1.247-3.387s-1.991-1.233-3.502-1.233h-1.655zM0 19.899v-15.042h5.338c5.362 0 8.036 2.441 8.036 7.336 0 2.345-0.732 4.212-2.195 5.612s-3.407 2.094-5.841 2.094h-5.338z"></path>
            <path fill="#393939" style="fill: var(--color3, #393939)" d="M21.721 13.438c0-1.544-0.624-2.31-1.871-2.31-0.528 0-0.995 0.215-1.379 0.658s-0.624 0.993-0.708 1.651h3.958zM24.792 15.473h-7.029c0.108 1.556 1.091 2.346 2.951 2.346 1.188 0 2.231-0.275 3.119-0.838v2.393c-0.996 0.526-2.291 0.802-3.886 0.802-1.739 0-3.083-0.479-4.054-1.448-0.96-0.957-1.439-2.298-1.439-4.021 0-1.783 0.516-3.195 1.559-4.236 1.031-1.041 2.315-1.568 3.826-1.568 1.572 0 2.783 0.467 3.647 1.4s1.283 2.19 1.283 3.793v1.376h0.024z"></path>
            <path fill="#393939" style="fill: var(--color3, #393939)" d="M29.665 19.901h-3.323v-15.904h3.322v15.904z"></path>
            <path fill="#393939" style="fill: var(--color3, #393939)" d="M35.36 19.9h-3.322v-10.746h3.322v10.746zM33.717 7.454c-0.564 0-1.020-0.168-1.379-0.503s-0.54-0.742-0.54-1.221c0-0.491 0.18-0.897 0.54-1.221 0.36-0.311 0.816-0.467 1.379-0.467s1.032 0.156 1.38 0.467c0.36 0.311 0.528 0.718 0.528 1.221s-0.18 0.921-0.528 1.233c-0.348 0.335-0.816 0.491-1.38 0.491z"></path>
            <path fill="#393939" style="fill: var(--color3, #393939)" d="M47.98 9.155l-4.006 10.746h-3.79l-3.814-10.746h3.55l1.871 6.618c0.216 0.754 0.336 1.388 0.372 1.915h0.048c0.048-0.491 0.18-1.113 0.384-1.843l1.919-6.677h3.467v-0.012z"></path>
            <path fill="#393939" style="fill: var(--color3, #393939)" d="M55.355 13.438c0-1.544-0.624-2.31-1.871-2.31-0.528 0-0.995 0.215-1.379 0.658s-0.624 0.993-0.708 1.651h3.958zM58.438 15.473h-7.029c0.108 1.556 1.091 2.346 2.951 2.346 1.188 0 2.231-0.275 3.119-0.838v2.393c-0.995 0.526-2.291 0.802-3.886 0.802-1.739 0-3.083-0.479-4.054-1.448-0.96-0.957-1.439-2.298-1.439-4.021 0-1.783 0.516-3.195 1.559-4.236 1.032-1.041 2.315-1.568 3.826-1.568 1.571 0 2.783 0.467 3.646 1.4s1.283 2.19 1.283 3.793v1.376h0.024z"></path>
            <path fill="#393939" style="fill: var(--color3, #393939)" d="M67.002 12.147c-0.396-0.215-0.864-0.323-1.403-0.323-0.72 0-1.284 0.263-1.691 0.79s-0.612 1.245-0.612 2.154v5.134h-3.322v-10.746h3.322v1.998h0.048c0.528-1.46 1.475-2.178 2.843-2.178 0.348 0 0.624 0.036 0.816 0.132v3.040z"></path>
            <path fill="#393939" style="fill: var(--color3, #393939)" d="M79.237 9.155l-4.378 11.608c-1.056 2.788-2.639 4.188-4.75 4.188-0.804 0-1.463-0.096-1.991-0.275v-2.645c0.444 0.263 0.924 0.383 1.439 0.383 0.852 0 1.451-0.407 1.787-1.209l0.564-1.328-4.378-10.722h3.682l2.003 6.534c0.132 0.407 0.228 0.886 0.3 1.436h0.048c0.060-0.407 0.18-0.874 0.348-1.412l2.027-6.558h3.299z"></path>
            <path fill="#393939" style="fill: var(--color3, #393939)" d="M15.343 30.204c-0.852 0.479-1.727 0.718-2.627 0.718-1.128 0-2.027-0.383-2.723-1.137-0.696-0.766-1.044-1.759-1.044-2.992 0-1.245 0.372-2.286 1.127-3.123 0.744-0.838 1.751-1.257 2.999-1.257 0.72 0 1.427 0.144 2.111 0.431v0.622c-0.744-0.359-1.475-0.538-2.195-0.538-1.044 0-1.871 0.359-2.507 1.065s-0.948 1.616-0.948 2.704c0 1.161 0.3 2.058 0.888 2.716s1.391 0.981 2.399 0.981c0.744 0 1.391-0.156 1.955-0.479v-2.716h-1.943v-0.515h2.519v3.518h-0.012z"></path>
            <path fill="#393939" style="fill: var(--color3, #393939)" d="M17.585 23.071v3.518h1.415c0.624 0 1.127-0.167 1.499-0.491s0.552-0.778 0.552-1.352c0-0.527-0.168-0.933-0.504-1.233s-0.816-0.443-1.427-0.443h-1.535zM21.231 30.777l-1.104-2.405c-0.228-0.503-0.456-0.826-0.684-1.005-0.228-0.167-0.516-0.251-0.852-0.251h-1.020v3.662h-0.564v-8.233h2.291c0.732 0 1.296 0.192 1.715 0.586s0.624 0.91 0.624 1.556c0 0.598-0.168 1.089-0.516 1.484-0.336 0.395-0.816 0.658-1.427 0.766v0.024c0.324 0.132 0.648 0.526 0.96 1.185l1.223 2.621h-0.648v0.012z"></path>
            <path fill="#393939" style="fill: var(--color3, #393939)" d="M26.773 22.929c-0.96 0-1.751 0.347-2.363 1.041-0.624 0.694-0.924 1.604-0.924 2.716 0 1.137 0.288 2.034 0.876 2.704s1.367 1.005 2.351 1.005c1.020 0 1.823-0.335 2.423-0.993s0.888-1.592 0.888-2.776c0-1.161-0.288-2.070-0.876-2.728-0.588-0.646-1.379-0.969-2.375-0.969zM26.713 30.923c-1.164 0-2.099-0.383-2.783-1.161-0.696-0.778-1.044-1.771-1.044-3.015 0-1.316 0.36-2.357 1.068-3.159 0.708-0.79 1.679-1.185 2.915-1.185 1.116 0 2.015 0.383 2.699 1.137s1.032 1.759 1.032 2.992c0 1.364-0.348 2.429-1.056 3.219s-1.655 1.173-2.831 1.173z"></path>
            <path fill="#393939" style="fill: var(--color3, #393939)" d="M37.665 27.488c0 2.286-0.972 3.434-2.939 3.434-1.859 0-2.795-1.101-2.795-3.303v-5.062h0.564v4.99c0 1.915 0.78 2.86 2.339 2.86 1.511 0 2.255-0.933 2.255-2.788v-5.062h0.564v4.93h0.012z"></path>
            <path fill="#393939" style="fill: var(--color3, #393939)" d="M40.013 23.072v3.889h1.175c0.744 0 1.308-0.18 1.691-0.526 0.384-0.359 0.576-0.85 0.576-1.496 0-1.233-0.708-1.855-2.135-1.855h-1.307v-0.012zM40.013 27.488v3.303h-0.564v-8.233h1.991c0.852 0 1.499 0.192 1.943 0.586s0.672 0.969 0.672 1.723c0 0.766-0.252 1.388-0.756 1.891-0.504 0.491-1.199 0.742-2.099 0.742h-1.188v-0.012z"></path>
            <path fill="#fdce00" style="fill: var(--color4, #fdce00)" d="M50.138 7.132h-5.65l3.035-3.566-3.035-3.566h5.65l3.035 3.566-3.035 3.566z"></path>
            <path fill="#b2b2b3" style="fill: var(--color5, #b2b2b3)" d="M58.822 7.132h-5.65l3.035-3.566-3.035-3.566h5.65l3.035 3.566-3.035 3.566z"></path>
            <path fill="#3f53a1" style="fill: var(--color6, #3f53a1)" d="M67.519 7.132h-5.661l3.034-3.566-3.035-3.566h5.661l3.035 3.566-3.035 3.566z"></path>
            <path fill="#95b51f" style="fill: var(--color7, #95b51f)" d="M76.203 7.132h-5.65l3.035-3.566-3.035-3.566h5.65l3.035 3.566-3.035 3.566z"></path>
        </symbol>
        <symbol id="icon-filter-koshik" viewBox="0 0 28 32">
            <path fill="#666" style="fill: var(--color1, #666)" d="M9.984 23.333l4.237-4.237 4.237 4.237 2.281-2.281-4.237-4.237 4.237-4.237-2.281-2.281-4.237 4.237-4.237-4.237-2.281 2.281 4.237 4.237-4.237 4.237 2.281 2.281zM6.073 30.667c-0.896 0-1.663-0.319-2.301-0.957-0.639-0.639-0.958-1.406-0.958-2.303v-21.185h-1.63v-3.259h8.148v-1.63h9.778v1.63h8.148v3.259h-1.63v21.185c0 0.896-0.319 1.664-0.957 2.303-0.639 0.638-1.406 0.957-2.303 0.957h-16.296z"></path>
        </symbol>
        <symbol id="icon-filter-minus" viewBox="0 0 32 32">
            <path fill="#ff7a00" style="fill: var(--color8, #ff7a00)" d="M32 16c0 8.837-7.163 16-16 16s-16-7.163-16-16c0-8.837 7.163-16 16-16s16 7.163 16 16z"></path>
            <path fill="#fff" style="fill: var(--color2, #fff)" d="M8 14.933h14.933c0.884 0 1.6 0.716 1.6 1.6s-0.716 1.6-1.6 1.6h-14.933c-0.884 0-1.6-0.716-1.6-1.6s0.716-1.6 1.6-1.6z"></path>
        </symbol>
        <symbol id="icon-filter-plys" viewBox="0 0 32 32">
            <path fill="#ff7a00" style="fill: var(--color8, #ff7a00)" d="M32 16c0 8.837-7.163 16-16 16s-16-7.163-16-16c0-8.837 7.163-16 16-16s16 7.163 16 16z"></path>
            <path fill="#fff" style="fill: var(--color2, #fff)" d="M9.404 15.196h14.262c0.738 0 1.337 0.599 1.337 1.337v0c0 0.738-0.599 1.337-1.337 1.337h-14.262c-0.738 0-1.337-0.599-1.337-1.337v0c0-0.738 0.599-1.337 1.337-1.337z"></path>
            <path fill="#fff" style="fill: var(--color2, #fff)" d="M15.196 23.664v-14.262c0-0.738 0.599-1.337 1.337-1.337v0c0.738 0 1.337 0.599 1.337 1.337v14.262c0 0.738-0.599 1.337-1.337 1.337v0c-0.738 0-1.337-0.599-1.337-1.337z"></path>
        </symbol>
        <symbol id="icon-form-map" viewBox="0 0 22 32">
            <path fill="#fabc26" style="fill: var(--color9, #fabc26)" d="M19.935 18.614c-0.001-0-9.914-2.312-9.914-2.312-2.955-0.689-4.808-3.716-4.14-6.761s3.606-4.955 6.561-4.266c2.955 0.689 4.808 3.716 4.14 6.761-0.335 1.525-1.239 2.763-2.429 3.535-0 0-0.003 0.003-0.004 0.003-0.035 0.026-0.058 0.068-0.058 0.115 0 0.066 0.045 0.122 0.105 0.137 0 0 4.41 1.028 4.411 1.028 0.105 0.025 0.214-0.017 0.278-0.105 0-0.001 0-0 0-0 1.215-1.657 1.945-3.724 1.945-5.96 0-5.265-3.992-9.568-9.027-9.874-0.045-0.003-0.318-0.014-0.41-0.015-2.229-0.036-4.49 0.623-6.455 2.041-4.964 3.582-6.17 10.632-2.695 15.747l8.82 12.981c0.038 0.053 0.098 0.087 0.166 0.087s0.129-0.035 0.167-0.088c0 0 8.661-12.728 8.662-12.73 0.022-0.034 0.035-0.075 0.035-0.118 0-0.101-0.068-0.185-0.159-0.206z"></path>
        </symbol>
        <symbol id="icon-Group-3" viewBox="0 0 53 32">
            <path  d="M2.286 0h48c1.262 0 2.286 1.023 2.286 2.286s-1.023 2.286-2.286 2.286h-48c-1.262 0-2.286-1.023-2.286-2.286s1.023-2.286 2.286-2.286z"></path>
            <path  d="M2.286 13.714h48c1.262 0 2.286 1.023 2.286 2.286s-1.023 2.286-2.286 2.286h-48c-1.262 0-2.286-1.023-2.286-2.286s1.023-2.286 2.286-2.286z"></path>
            <path  d="M2.286 27.429h48c1.262 0 2.286 1.023 2.286 2.286s-1.023 2.286-2.286 2.286h-48c-1.262 0-2.286-1.023-2.286-2.286s1.023-2.286 2.286-2.286z"></path>
        </symbol>
        <symbol id="icon-halochka" viewBox="0 0 47 32">
            <path fill="#2eb84c" style="fill: var(--color10, #2eb84c)" d="M42.307 5.995c0.568-0.568 0.568-1.489 0-2.057s-1.489-0.568-2.057 0l-17.378 17.377c-2.272 2.272-5.956 2.272-8.228 0l-8.65-8.65c-0.568-0.568-1.489-0.568-2.057 0s-0.568 1.489 0 2.057l14.144 14.144c0.002 0.002 0.005 0.002 0.006 0s0.005-0.002 0.006 0l0.334 0.334c0.186 0.186 0.488 0.186 0.674 0l23.205-23.205z"></path>
            <path fill="#2eb84c" style="fill: var(--color10, #2eb84c)" d="M39.222 2.909c1.136-1.136 2.978-1.136 4.114 0s1.136 2.978 0 4.114l-23.205 23.205c-0.754 0.754-1.977 0.754-2.731 0l-0.224-0.224c-0.043-0.034-0.084-0.070-0.123-0.11l-14.144-14.144c-1.136-1.136-1.136-2.978 0-4.114s2.978-1.136 4.114 0l8.65 8.65c1.704 1.704 4.467 1.704 6.171 0l17.377-17.377zM18.759 27.486l5.143-5.143c-2.84 2.84-7.443 2.84-10.284 0.002l5.141 5.141z"></path>
        </symbol>
        <symbol id="icon-halochka-bottom" viewBox="0 0 32 32">
            <path fill="#ff7a00" style="fill: var(--color8, #ff7a00)" d="M3.273 10.586c0.375-0.375 0.884-0.586 1.414-0.586s1.039 0.211 1.414 0.586l9.9 9.9 9.9-9.9c0.377-0.364 0.882-0.566 1.407-0.561s1.026 0.215 1.397 0.586 0.581 0.872 0.586 1.397c0.004 0.524-0.197 1.030-0.561 1.407l-11.314 11.314c-0.375 0.375-0.884 0.586-1.414 0.586s-1.039-0.211-1.414-0.586l-11.314-11.314c-0.375-0.375-0.586-0.884-0.586-1.414s0.211-1.039 0.586-1.414z"></path>
        </symbol>
        <symbol id="icon-halochka-left" viewBox="0 0 32 32">
            <path fill="#ff7a00" style="fill: var(--color8, #ff7a00)" d="M21.415 3.272c0.375 0.375 0.586 0.884 0.586 1.414s-0.211 1.039-0.586 1.414l-9.9 9.9 9.9 9.9c0.364 0.377 0.566 0.882 0.561 1.407s-0.215 1.026-0.586 1.397-0.872 0.581-1.397 0.586c-0.524 0.005-1.030-0.197-1.407-0.561l-11.314-11.314c-0.375-0.375-0.586-0.884-0.586-1.414s0.211-1.039 0.586-1.414l11.314-11.314c0.375-0.375 0.884-0.586 1.414-0.586s1.039 0.211 1.414 0.586z"></path>
        </symbol>
        <symbol id="icon-halochke-top" viewBox="0 0 32 32">
            <path fill="#ff7a00" style="fill: var(--color8, #ff7a00)" d="M28.703 24.728c-0.375 0.375-0.884 0.586-1.414 0.586s-1.039-0.211-1.414-0.586l-9.9-9.9-9.9 9.9c-0.377 0.364-0.882 0.566-1.407 0.561s-1.026-0.215-1.397-0.586-0.581-0.872-0.586-1.397c-0.005-0.524 0.197-1.030 0.561-1.407l11.314-11.314c0.375-0.375 0.884-0.586 1.414-0.586s1.039 0.211 1.414 0.586l11.314 11.314c0.375 0.375 0.586 0.884 0.586 1.414s-0.211 1.039-0.586 1.414z"></path>
        </symbol>
        <symbol id="icon-koshik_plus" viewBox="0 0 32 32">
            <path fill="#ff891c" style="fill: var(--color11, #ff891c)" d="M12 28.444c1.227 0 2.222-0.995 2.222-2.222s-0.995-2.222-2.222-2.222c-1.227 0-2.222 0.995-2.222 2.222s0.995 2.222 2.222 2.222z"></path>
            <path fill="#ff891c" style="fill: var(--color11, #ff891c)" d="M23.556 28.444c1.227 0 2.222-0.995 2.222-2.222s-0.995-2.222-2.222-2.222c-1.227 0-2.222 0.995-2.222 2.222s0.995 2.222 2.222 2.222z"></path>
            <path fill="#ff891c" style="fill: var(--color11, #ff891c)" d="M26.667 12c-1.768 0-3.464-0.702-4.714-1.953s-1.953-2.946-1.953-4.714h-11.813l-0.4-1.271c-0.044-0.136-0.12-0.26-0.222-0.361s-0.227-0.175-0.364-0.217l-3.644-1.12c-0.112-0.034-0.23-0.046-0.347-0.035s-0.23 0.045-0.334 0.1c-0.209 0.111-0.366 0.3-0.435 0.527s-0.046 0.471 0.065 0.68c0.111 0.209 0.3 0.366 0.527 0.435l3.191 0.978 4.071 12.862-1.449 1.191-0.116 0.116c-0.358 0.415-0.561 0.942-0.574 1.489s0.165 1.084 0.503 1.515c0.242 0.295 0.55 0.529 0.899 0.683s0.729 0.225 1.11 0.206h14.835c0.236 0 0.462-0.094 0.629-0.26s0.26-0.393 0.26-0.629-0.093-0.462-0.26-0.628c-0.167-0.167-0.393-0.26-0.629-0.26h-14.978c-0.102-0.004-0.202-0.033-0.29-0.087s-0.16-0.128-0.21-0.218c-0.050-0.089-0.076-0.19-0.076-0.293s0.027-0.203 0.077-0.292l2.142-1.778h13.715c0.203 0.006 0.402-0.058 0.564-0.181s0.277-0.297 0.325-0.495l1.52-6.222c-0.53 0.144-1.077 0.222-1.627 0.231z"></path>
            <path fill="#ff891c" style="fill: var(--color11, #ff891c)" d="M26.667 9.778c2.455 0 4.444-1.99 4.444-4.444s-1.99-4.444-4.444-4.444c-2.455 0-4.444 1.99-4.444 4.444s1.99 4.444 4.444 4.444z"></path>
            <path fill="#fff" style="fill: var(--color2, #fff)" d="M29.79 4.209c0.094-0.094 0.094-0.247 0-0.341s-0.247-0.094-0.341 0l-2.883 2.883c-0.377 0.377-0.988 0.377-1.365 0l-1.435-1.435c-0.094-0.094-0.247-0.094-0.341 0s-0.094 0.247 0 0.341l2.347 2.347c0 0 0.001 0 0.001 0s0.001-0 0.001 0l0.055 0.055c0.031 0.031 0.081 0.031 0.112 0l3.85-3.85z"></path>
            <path fill="#fff" style="fill: var(--color2, #fff)" d="M29.278 3.697c0.189-0.188 0.494-0.188 0.683 0s0.188 0.494 0 0.683l-3.85 3.85c-0.125 0.125-0.328 0.125-0.453 0l-0.037-0.037c-0.007-0.006-0.014-0.012-0.020-0.018l-2.347-2.347c-0.188-0.189-0.188-0.494 0-0.683s0.494-0.189 0.683 0l1.435 1.435c0.283 0.283 0.741 0.283 1.024 0l2.883-2.883zM25.883 7.775l0.853-0.853c-0.471 0.471-1.235 0.471-1.706 0l0.853 0.853z"></path>
        </symbol>
        <symbol id="icon-map" viewBox="0 0 32 32">
            <path d="M16 2.667c-5.881 0-10.667 4.785-10.667 10.66-0.039 8.593 10.261 15.719 10.667 16.007 0 0 10.705-7.413 10.667-16 0-5.881-4.785-10.667-10.667-10.667zM16 18.667c-2.947 0-5.333-2.387-5.333-5.333s2.387-5.333 5.333-5.333c2.947 0 5.333 2.387 5.333 5.333s-2.387 5.333-5.333 5.333z"></path>
        </symbol>
        <symbol id="icon-mashina" viewBox="0 0 40 32">
            <path fill="#0862af" style="fill: var(--color12, #0862af)" d="M2.849 14.243h17.091v2.849h-17.091v-2.849zM0 7.121h14.243v2.849h-14.243v-2.849z"></path>
            <path fill="#0862af" style="fill: var(--color12, #0862af)" d="M39.765 15.106l-4.273-9.97c-0.11-0.256-0.292-0.475-0.525-0.628s-0.505-0.235-0.784-0.235h-4.273v-2.849c0-0.378-0.15-0.74-0.417-1.007s-0.629-0.417-1.007-0.417h-22.788v2.849h21.364v17.883c-0.649 0.377-1.217 0.879-1.671 1.476s-0.786 1.279-0.975 2.005h-8.95c-0.347-1.343-1.171-2.513-2.319-3.291s-2.54-1.111-3.915-0.937c-1.376 0.175-2.64 0.845-3.557 1.886s-1.422 2.379-1.422 3.766c0 1.387 0.506 2.726 1.422 3.766s2.181 1.711 3.557 1.885c1.376 0.175 2.768-0.158 3.915-0.936s1.972-1.948 2.319-3.291h8.95c0.31 1.222 1.018 2.307 2.014 3.081s2.22 1.195 3.481 1.195c1.261 0 2.486-0.421 3.481-1.195s1.704-1.859 2.014-3.081h3.051c0.378 0 0.74-0.15 1.007-0.417s0.417-0.629 0.417-1.007v-9.97c0-0.193-0.039-0.384-0.115-0.561zM9.971 28.485c-0.563 0-1.114-0.167-1.583-0.48s-0.834-0.758-1.049-1.278c-0.216-0.521-0.272-1.093-0.162-1.646s0.381-1.060 0.78-1.459c0.398-0.398 0.906-0.67 1.459-0.78s1.125-0.053 1.646 0.162 0.965 0.581 1.278 1.049c0.313 0.468 0.48 1.019 0.48 1.583-0.001 0.755-0.301 1.479-0.835 2.013s-1.258 0.834-2.013 0.835zM29.911 7.121h3.333l3.054 7.121h-6.387v-7.121zM29.911 28.485c-0.563 0-1.114-0.167-1.583-0.48s-0.833-0.758-1.049-1.278c-0.216-0.521-0.272-1.093-0.162-1.646s0.381-1.060 0.78-1.459c0.398-0.398 0.906-0.67 1.459-0.78s1.125-0.053 1.646 0.162 0.965 0.581 1.278 1.049c0.313 0.468 0.48 1.019 0.48 1.583-0.001 0.755-0.301 1.479-0.835 2.013s-1.258 0.834-2.013 0.835zM37.032 24.213h-1.626c-0.314-1.22-1.023-2.301-2.018-3.075s-2.217-1.195-3.477-1.198v-2.849h7.121v7.121z"></path>
        </symbol>
        <symbol id="icon-meest" viewBox="0 0 104 32">
            <path fill="#0862af" style="fill: var(--color12, #0862af)" d="M78.514 12.395c-2.437-0.801-3.198-1.275-3.198-2.142 0-0.965 0.847-1.537 2.351-1.537 1.227 0 2.455 0.327 3.371 0.67l0.398-4.186c-1.124-0.294-2.489-0.523-3.976-0.523-4.927 0-8.090 2.649-8.090 6.148-0.035 2.224 1.539 4.333 5.653 5.658 2.316 0.736 2.921 1.194 2.921 2.142 0 0.965-0.778 1.57-2.645 1.57-1.815 0-4.166-0.769-5.324-1.423l-1.089 4.186c1.504 0.769 3.803 1.308 6.431 1.308 5.704 0 8.608-2.567 8.608-6.083-0.035-2.764-1.608-4.562-5.411-5.789zM93.466 19.508c-1.867 0-2.437-1.030-2.437-3.303v-16.205l-6.050 1.308v3.777h-2.299l-0.415 4.301h2.731v7.669c0 2.649 0.57 4.448 1.711 5.576 0.968 0.965 2.627 1.619 4.615 1.619 1.746 0 3.198-0.196 4.010-0.507l-0.035-4.415c-0.449 0.082-1.054 0.164-1.832 0.18zM91.513 9.403h3.786v-4.317h-3.786v4.317zM22.904 14.815c-0.121-2.878-0.225-6.361-0.225-9.844h-0.121c-0.812 3.058-1.919 6.475-2.939 9.272l-3.215 9.353h-4.65l-2.818-9.288c-0.864-2.813-1.763-6.23-2.386-9.353h-0.069c-0.156 3.221-0.277 6.933-0.467 9.926l-0.467 9.092h-5.549l1.677-23.956h7.952l2.576 7.996c0.812 2.764 1.642 5.772 2.23 8.569h0.121c0.743-2.764 1.642-5.952 2.506-8.601l2.818-7.964h7.796l1.452 23.956h-5.843l-0.38-9.157zM55.627 16.352c0.207 2.42 2.714 3.565 5.618 3.565 2.109 0 3.803-0.262 5.497-0.769l0.812 3.957c-2.022 0.769-4.494 1.145-7.191 1.145-6.742 0-10.596-3.679-10.596-9.566 0-4.758 3.129-10.024 10.026-10.024 6.43 0 8.85 4.709 8.85 9.37 0 0.998-0.121 1.881-0.207 2.306l-12.809 0.016zM62.904 12.346c0-1.423-0.657-3.794-3.492-3.794-2.593 0-3.647 2.224-3.803 3.794h7.295z"></path>
            <path fill="#ed1c24" style="fill: var(--color13, #ed1c24)" d="M99.874 0.012l4.125 7.246-4.125 7.279h-4.176l4.125-7.279-4.142-7.246h4.193c0-0.016 0-0.016 0 0zM48.824 31.2h-16.773v-4.009h16.773v4.009zM36.978 16.395c0.204 2.432 2.676 3.582 5.54 3.582 2.080 0 3.75-0.263 5.42-0.772l0.801 3.976c-1.994 0.772-4.432 1.15-7.091 1.15-6.648 0-10.449-3.697-10.449-9.613 0-4.782 3.085-10.073 9.886-10.073 6.341 0 8.727 4.732 8.727 9.415 0 1.002-0.119 1.89-0.205 2.317h-12.63v0.016zM44.154 12.369c0-1.43-0.648-3.812-3.443-3.812-2.557 0-3.596 2.235-3.767 3.812h7.21z"></path>
        </symbol>
        <symbol id="icon-nova-poshta" viewBox="0 0 32 32">
            <path fill="#ff000a" style="fill: var(--color14, #ff000a)" d="M25.64 9.468c0.095-0.032 0.223 0.032 0.35 0.21 0 0 0 0 5.759 5.677 0.334 0.339 0.334 0.855 0 1.113 0 0 0 0-5.759 5.774-0.127 0.161-0.255 0.21-0.35 0.161s-0.159-0.21-0.159-0.419v-12.145c0-0.21 0.064-0.339 0.159-0.371z"></path>
            <path fill="#ff000a" style="fill: var(--color14, #ff000a)" d="M15.794 0h0.414l0.382 0.161c0 0 0 0 5.934 5.952 0.255 0.339 0.159 0.581-0.255 0.581 0 0 0 0-2.466 0-0.414 0-0.764 0.355-0.764 0.774 0 0 0 0 0 4.419 0 0.419-0.334 0.758-0.843 0.758 0 0 0 0-4.311 0-0.43 0-0.764-0.339-0.764-0.758 0 0 0 0 0-4.419 0-0.419-0.334-0.774-0.764-0.774h-2.625c-0.43 0-0.509-0.242-0.255-0.581 0 0 0 0 5.934-5.952l0.382-0.161z"></path>
            <path fill="#ff000a" style="fill: var(--color14, #ff000a)" d="M6.519 9.339c0.095 0.065 0.159 0.21 0.159 0.419v12.387c0 0.226-0.064 0.355-0.159 0.387-0.111 0.048-0.255 0-0.43-0.129 0 0 0 0-5.838-5.935-0.334-0.258-0.334-0.774 0-1.113 0 0 0 0 5.838-5.855 0.175-0.161 0.318-0.21 0.43-0.161z"></path>
            <path fill="#ff000a" style="fill: var(--color14, #ff000a)" d="M13.884 19.097c0 0 0 0 4.311 0 0.509 0 0.859 0.339 0.859 0.774 0 0 0 0 0 4.661 0 0.516 0.334 0.855 0.748 0.855h2.291c0.429 0 0.589 0.242 0.255 0.5 0 0 0 0-5.759 5.855-0.175 0.177-0.382 0.258-0.589 0.258s-0.43-0.081-0.589-0.258c0 0 0 0-5.759-5.855-0.35-0.258-0.175-0.5 0.239-0.5 0 0 0 0 2.466 0 0.43 0 0.764-0.339 0.764-0.855 0 0 0 0 0-4.661 0-0.435 0.334-0.774 0.764-0.774z"></path>
        </symbol>
        <symbol id="icon-ok-halochka" viewBox="0 0 32 32">
            <path d="M6.318 5.768h18.953v19.365h-18.953v-19.365z"></path>
        </symbol>
        <symbol id="icon-phone" viewBox="0 0 32 32">
            <path d="M24.806 27.675l3.325-3.328c0.236-0.235 0.423-0.514 0.551-0.821s0.193-0.637 0.193-0.969c0-0.678-0.266-1.316-0.744-1.794l-3.581-3.581c-0.235-0.236-0.514-0.423-0.821-0.551s-0.637-0.193-0.969-0.193c-0.678 0-1.316 0.266-1.794 0.744l-2.619 2.619c-1.351-0.613-2.58-1.465-3.628-2.516-1.053-1.048-1.908-2.277-2.525-3.628l2.619-2.619c0.236-0.235 0.423-0.514 0.551-0.821s0.193-0.637 0.193-0.97c0-0.678-0.266-1.316-0.744-1.794l-3.578-3.584c-0.235-0.236-0.515-0.423-0.823-0.551s-0.638-0.193-0.971-0.193c-0.678 0-1.316 0.266-1.794 0.744l-3.322 3.322c-0.766 0.763-1.2 1.816-1.2 2.897 0 0.228 0.019 0.447 0.056 0.662 0.694 4.213 2.934 8.391 6.303 11.763 3.366 3.369 7.541 5.606 11.766 6.309 1.291 0.213 2.619-0.216 3.556-1.147v0z"></path>
        </symbol>
        <symbol id="icon-plus" viewBox="0 0 32 32">
            <path fill="#fff" style="fill: var(--color2, #fff)" d="M16 4c0.736 0 1.333 0.597 1.333 1.333v9.333h9.333c0.736 0 1.333 0.597 1.333 1.333s-0.597 1.333-1.333 1.333h-9.333v9.333c0 0.736-0.597 1.333-1.333 1.333s-1.333-0.597-1.333-1.333v-9.333h-9.333c-0.736 0-1.333-0.597-1.333-1.333s0.597-1.333 1.333-1.333h9.333v-9.333c0-0.736 0.597-1.333 1.333-1.333z"></path>
        </symbol>
        <symbol id="icon-strilka" viewBox="0 0 86 32">
            <path fill="#666" style="fill: var(--color1, #666)" d="M66.089 31.184c-0.449-0.45-0.702-1.059-0.702-1.695s0.252-1.245 0.702-1.695l11.866-11.866-11.866-11.866c-0.436-0.452-0.678-1.058-0.673-1.686s0.258-1.23 0.702-1.674c0.444-0.444 1.046-0.697 1.674-0.702s1.234 0.236 1.686 0.673l13.561 13.561c0.45 0.45 0.702 1.059 0.702 1.695s-0.252 1.245-0.702 1.695l-13.561 13.561c-0.449 0.449-1.059 0.702-1.695 0.702s-1.245-0.252-1.695-0.702v0z"></path>
            <path fill="#666" style="fill: var(--color1, #666)" d="M2.131 13.957h74.577c1.177 0 2.131 0.954 2.131 2.131v0c0 1.177-0.954 2.131-2.131 2.131h-74.577c-1.177 0-2.131-0.954-2.131-2.131v0c0-1.177 0.954-2.131 2.131-2.131z"></path>
        </symbol>
        <symbol id="icon-strilka-left" viewBox="0 0 86 32">
            <path fill="#ff7a00" style="fill: var(--color8, #ff7a00)" d="M17.652 0.702c0.449 0.45 0.702 1.059 0.702 1.695s-0.252 1.245-0.702 1.695l-11.866 11.866 11.866 11.866c0.437 0.452 0.678 1.058 0.673 1.686s-0.258 1.23-0.702 1.674-1.046 0.697-1.674 0.702c-0.629 0.005-1.234-0.236-1.686-0.673l-13.561-13.561c-0.449-0.45-0.702-1.059-0.702-1.695s0.252-1.245 0.702-1.695l13.561-13.561c0.45-0.449 1.059-0.702 1.695-0.702s1.245 0.252 1.695 0.702z"></path>
            <path fill="#ff7a00" style="fill: var(--color8, #ff7a00)" d="M81.607 17.929h-74.577c-1.177 0-2.131-0.954-2.131-2.131v0c0-1.177 0.954-2.131 2.131-2.131h74.577c1.177 0 2.131 0.954 2.131 2.131v0c0 1.177-0.954 2.131-2.131 2.131z"></path>
        </symbol>
        <symbol id="icon-telegram" viewBox="0 0 33 32">
            <path  d="M30.988 6.163l-4.376 19.925c-0.33 1.406-1.191 1.756-2.414 1.094l-6.668-4.744-3.217 2.988c-0.356 0.344-0.653 0.631-1.34 0.631l0.48-6.556 12.357-10.781c0.538-0.462-0.117-0.719-0.835-0.256l-15.277 9.288-6.577-1.988c-1.43-0.431-1.456-1.381 0.298-2.044l25.724-9.569c1.191-0.431 2.233 0.256 1.845 2.013v-0.001z"></path>
        </symbol>
        <symbol id="icon-viber" viewBox="0 0 33 32">
            <path  d="M15.74 0.005c-2.66 0.031-8.378 0.453-11.576 3.286-2.379 2.276-3.21 5.641-3.307 9.802-0.081 4.146-0.178 11.932 7.595 14.052v3.229c0 0-0.049 1.292 0.836 1.557 1.090 0.333 1.71-0.661 2.746-1.729l1.932-2.109c5.318 0.427 9.392-0.557 9.861-0.703 1.079-0.333 7.158-1.083 8.151-8.87 1.019-8.042-0.496-13.109-3.231-15.401h-0.017c-0.826-0.734-4.143-3.068-11.554-3.094 0 0-0.55-0.036-1.434-0.021v0.001zM15.832 2.266c0.755-0.005 1.214 0.026 1.214 0.026 6.273 0.016 9.268 1.839 9.974 2.453 2.303 1.906 3.49 6.474 2.621 13.188-0.826 6.51-5.755 6.922-6.668 7.203-0.388 0.12-3.976 0.974-8.496 0.693 0 0-3.366 3.922-4.418 4.932-0.167 0.177-0.361 0.229-0.486 0.203-0.178-0.042-0.232-0.255-0.222-0.547l0.032-5.359c-6.592-1.76-6.204-8.401-6.133-11.87 0.081-3.469 0.755-6.307 2.762-8.229 2.702-2.359 7.558-2.677 9.818-2.693h0.002zM16.329 5.734c-0.054-0.001-0.108 0.009-0.158 0.029s-0.096 0.049-0.135 0.086c-0.039 0.037-0.069 0.081-0.090 0.129s-0.032 0.1-0.032 0.153c0 0.224 0.188 0.401 0.415 0.401 1.027-0.019 2.048 0.159 3.003 0.523s1.827 0.907 2.564 1.597c1.505 1.411 2.238 3.307 2.266 5.786 0 0.219 0.183 0.401 0.415 0.401v-0.016c0.109 0 0.214-0.041 0.292-0.115s0.122-0.175 0.123-0.281c0.050-1.167-0.146-2.331-0.576-3.423s-1.086-2.087-1.927-2.926c-1.64-1.547-3.717-2.344-6.16-2.344v0.001zM10.87 6.651c-0.293-0.041-0.592 0.015-0.847 0.161h-0.022c-0.592 0.335-1.126 0.759-1.581 1.255-0.378 0.422-0.583 0.849-0.637 1.26-0.032 0.245-0.010 0.49 0.065 0.724l0.027 0.016c0.426 1.208 0.982 2.37 1.661 3.464 0.875 1.537 1.952 2.958 3.204 4.229l0.037 0.052 0.059 0.042 0.037 0.042 0.044 0.036c1.321 1.213 2.797 2.257 4.391 3.109 1.823 0.958 2.929 1.411 3.593 1.599v0.010c0.195 0.057 0.372 0.083 0.55 0.083 0.566-0.040 1.101-0.262 1.521-0.63 0.512-0.439 0.945-0.957 1.284-1.531v-0.010c0.318-0.578 0.21-1.125-0.249-1.495-0.919-0.776-1.912-1.464-2.967-2.057-0.706-0.37-1.424-0.146-1.715 0.229l-0.62 0.755c-0.318 0.375-0.896 0.323-0.896 0.323l-0.017 0.010c-4.31-1.063-5.459-5.276-5.459-5.276s-0.054-0.573 0.345-0.865l0.777-0.604c0.372-0.292 0.631-0.984 0.232-1.667-0.61-1.020-1.321-1.979-2.125-2.865-0.176-0.209-0.422-0.351-0.696-0.401l0.002 0.002zM17.046 7.839c-0.55 0-0.55 0.802 0.005 0.802 0.684 0.011 1.359 0.151 1.986 0.414s1.195 0.642 1.671 1.117c0.434 0.462 0.767 1.003 0.98 1.592s0.302 1.213 0.261 1.835c0.002 0.105 0.046 0.206 0.124 0.28s0.182 0.116 0.291 0.116l0.017 0.021c0.11-0.001 0.215-0.043 0.293-0.118s0.122-0.177 0.122-0.283c0.037-1.589-0.474-2.922-1.478-3.99-1.009-1.068-2.416-1.667-4.213-1.786h-0.059zM17.726 9.995c-0.567-0.016-0.588 0.802-0.027 0.818 1.365 0.068 2.028 0.734 2.115 2.104 0.002 0.104 0.046 0.203 0.122 0.276s0.18 0.114 0.288 0.115h0.017c0.055-0.002 0.11-0.015 0.16-0.038s0.095-0.055 0.132-0.095 0.066-0.086 0.084-0.137c0.018-0.050 0.026-0.104 0.023-0.158-0.097-1.786-1.106-2.792-2.897-2.885h-0.017v-0.001z"></path>
        </symbol>
        <symbol id="icon-koshik__white" viewBox="0 0 33 32">
            <path fill="#fff" style="fill: var(--color1, #fff)" d="M10.88 32c1.767 0 3.2-1.433 3.2-3.2s-1.433-3.2-3.2-3.2c-1.767 0-3.2 1.433-3.2 3.2s1.433 3.2 3.2 3.2z"></path>
            <path fill="#fff" style="fill: var(--color1, #fff)" d="M26.24 32c1.767 0 3.2-1.433 3.2-3.2s-1.433-3.2-3.2-3.2c-1.767 0-3.2 1.433-3.2 3.2s1.433 3.2 3.2 3.2z"></path>
            <path fill="#fff" style="fill: var(--color1, #fff)" d="M33.019 4.131c-0.101-0.132-0.231-0.24-0.38-0.314s-0.312-0.113-0.478-0.113h-25.091l-0.489-1.565c-0.054-0.168-0.147-0.321-0.272-0.444s-0.278-0.216-0.445-0.267l-4.453-1.379c-0.137-0.042-0.281-0.057-0.423-0.044s-0.281 0.055-0.408 0.123c-0.256 0.137-0.447 0.37-0.532 0.648s-0.057 0.58 0.079 0.838c0.135 0.258 0.367 0.45 0.643 0.536l3.899 1.204 4.975 15.839-1.77 1.467-0.141 0.142c-0.438 0.511-0.686 1.159-0.702 1.834s0.202 1.334 0.615 1.866c0.296 0.363 0.672 0.651 1.099 0.841s0.891 0.277 1.356 0.254h18.128c0.288 0 0.564-0.115 0.768-0.32s0.318-0.484 0.318-0.774-0.114-0.569-0.318-0.774c-0.204-0.205-0.48-0.321-0.768-0.321h-18.302c-0.125-0.004-0.247-0.041-0.354-0.107s-0.195-0.158-0.256-0.268c-0.061-0.11-0.093-0.234-0.093-0.36s0.033-0.25 0.095-0.36l2.618-2.189h16.76c0.248 0.007 0.491-0.071 0.689-0.223s0.338-0.366 0.397-0.609l3.476-14.23c0.033-0.163 0.029-0.332-0.013-0.493s-0.119-0.311-0.226-0.437z"></path>
        </symbol>
    </defs>
</svg>